<?xml version="1.0" standalone="no"?><!DOCTYPE svg PUBLIC "-//W3C//DTD SVG 1.1//EN" "http://www.w3.org/Graphics/SVG/1.1/DTD/svg11.dtd"><svg class="icon" width="200px" height="200.00px" viewBox="0 0 1024 1024" version="1.1" xmlns="http://www.w3.org/2000/svg"><path d="M943.55968 448.64512a17766.912 17766.912 0 0 0-11.48928-33.75104 229.20192 229.20192 0 0 0-21.19168-55.7056c-31.90272-65.34144-91.03872-97.73568-151.22944-120.30464-84.84352-31.81568-194.51904 7.52128-194.51904 7.52128l-8.60672-10.73664s-30.33088-46.68416-132.18816-16.12288c-64.4864 19.34848-112.85504 80.60928-112.85504 80.60928l-4.29568 8.59136-1.59744 3.39456c-103.86432 13.06624-116.62848 110.5408-116.62848 110.5408s-74.15808 22.56896-96.72704 141.86496c-22.56896 119.30624 29.01504 219.25376 119.30112 241.82272 90.28096 22.57408 145.09056-45.13792 145.09056-45.13792s25.16992 31.7184 45.13792 48.36352c38.69184 32.24064 154.76224 35.46624 216.02304 6.4512 8.02304-3.79904 18.82624-11.66336 31.50848-22.41024l-2.49344 3.06176c25.79968 35.47136 106.39872 41.92256 157.98784-22.56896 2.03264-2.5344 4.21376-5.504 6.4768-8.68864a252.97408 252.97408 0 0 0 16.09728 5.47328c64.4864 19.33824 135.424-38.69696 157.98784-135.424 22.10816-94.74048-39.22944-183.2192-41.78944-186.84416z" fill="#BCE5E5" /><path d="M463.39072 839.57248c-48.9472 0-96.13824-10.27072-119.82848-30.01344-1.13152-0.9472-2.31424-1.90464-3.5328-2.89792-21.23264-17.26976-56.76544-46.1824-60.02176-150.28736-2.91328-93.18912 9.31328-320.36352 185.2928-416.97792 144.18944-79.16544 301.12768-51.52768 390.51264 68.7872 90.368 121.6512 9.472 212.11648 8.64256 213.0176a15.36512 15.36512 0 0 1-22.60992-20.79744c2.60608-2.88768 64.11776-73.18528-10.69568-173.89568-79.83104-107.45344-220.90752-131.6352-351.06816-60.17536-161.08032 88.43264-172.1088 301.55776-169.37472 389.08928 2.81088 90.0864 30.42816 112.54784 48.70144 127.41632 1.32096 1.0752 2.59584 2.10944 3.8144 3.12832 33.95072 28.29824 144.02048 30.69952 199.62368 4.37248 47.1552-22.33344 22.47168-84.03456 21.39648-86.65088a15.38048 15.38048 0 0 1 8.33024-20.0448 15.35488 15.35488 0 0 1 20.0448 8.26368c13.10208 31.44704 22.30272 98.2784-36.61824 126.18752-30.55104 14.45888-72.17664 21.4784-112.60928 21.4784z" fill="#2E0C08" /><path d="M804.34176 778.17344c-10.00448 0-19.96288-1.4592-29.75744-4.39808a15.36 15.36 0 0 1-10.29632-19.1232 15.3344 15.3344 0 0 1 19.1232-10.29632c20.49024 6.144 42.43968 2.9696 63.43168-9.19552 35.01056-20.28032 63.11424-63.27296 75.1872-115.00544 20.7616-88.92928-38.85568-173.74208-39.45984-174.592a15.36512 15.36512 0 0 1 25.00096-17.85856c2.79552 3.9168 68.25984 97.11104 44.38016 199.424-14.17216 60.72832-46.86336 109.78816-89.70752 134.6048-18.83136 10.92096-38.4512 16.44032-57.90208 16.44032z" fill="#2E0C08" /><path d="M660.59264 826.66496c-0.96256 0-1.91488-0.01024-2.87744-0.03072-30.49472-0.70144-57.29792-12.93824-71.70048-32.7424a15.34976 15.34976 0 0 1 3.38432-21.4528 15.33952 15.33952 0 0 1 21.4528 3.38432c8.67328 11.91936 26.90048 19.61984 47.5648 20.096 32.03072 0.73728 63.44192-15.01696 86.00576-43.22304 44.76416-55.95648-4.29056-149.9136-4.79232-150.8608a15.36 15.36 0 1 1 27.13088-14.4128c2.432 4.57728 58.89024 112.91648 1.64864 184.45824-27.9296 34.93376-67.08736 54.784-107.81696 54.784z" fill="#2E0C08" /><path d="M692.98176 611.08736c-101.18656 0-189.568-114.41664-193.8176-120.00768a15.36 15.36 0 0 1 24.44288-18.60608c1.05472 1.38752 107.19744 138.65472 204.76928 101.36576 25.984-9.9328 42.68032-25.216 51.0464-46.71488 18.89792-48.57856-11.1616-113.09056-17.3824-125.53216l-12.9024-25.78944a15.36 15.36 0 0 1 27.47904-13.74208l12.9024 25.79456c10.15808 20.33664 41.53344 91.26912 18.52928 150.40512-11.52512 29.6192-34.64192 51.24608-68.70528 64.26624a128.77824 128.77824 0 0 1-46.3616 8.56064zM440.45312 693.82656a15.36 15.36 0 1 1 0-30.72c15.36 0 34.816-6.86592 40.60672-19.57888 5.02272-11.0336-0.91648-27.1104-16.72192-45.25568-76.07296-87.35744-144.00512-38.61504-146.85696-36.50048a15.39584 15.39584 0 0 1-21.46816-3.08736 15.32416 15.32416 0 0 1 2.94912-21.4272c0.9216-0.70144 93.15328-68.68992 188.53888 40.832 30.99136 35.584 28.80512 62.14656 21.51936 78.16192-11.81696 25.95328-42.95168 37.57568-68.56704 37.57568zM263.10656 303.67232a15.34976 15.34976 0 0 1-12.04224-24.86784c2.0992-2.65728 52.15232-65.29536 120.49408-85.80096 111.60576-33.47968 147.9936 20.16256 149.49376 22.46656a15.36 15.36 0 0 1-25.76384 16.73728c-0.89088-1.2288-27.0592-36.12672-114.90304-9.7792-58.91072 17.67424-104.76032 74.84928-105.22112 75.42272a15.36 15.36 0 0 1-12.0576 5.82144z" fill="#2E0C08" /><path d="M682.26048 513.26464a15.36 15.36 0 0 1-13.53728-22.59456c0.6144-1.32096 17.97632-40.34048-48.6656-104.20736-71.12192-68.16256-236.94848-44.50816-238.61248-44.25728-7.96672 1.16736-14.97088-2.08896-16.71168-9.80992-1.87392-2.816-15.06304-19.0464-69.36576-19.0464-63.104 0-111.06304 18.39104-131.57888 50.45248-10.0864 15.76448-12.3392 33.35168-6.016 47.04768C172.3904 442.5216 236.032 440.65792 236.66176 440.6272a15.35488 15.35488 0 1 1 1.3312 30.68928c-3.47136 0.14848-84.72064 3.09248-108.11904-47.59552-10.73152-23.25504-7.72608-51.84512 8.03328-76.48256 15.44192-24.13056 56.42752-64.6144 157.45536-64.6144 56.576 0 81.02912 16.01024 91.392 27.94496 39.14752-4.41344 182.7328-15.1296 254.55616 53.7088 84.80768 81.28 55.79264 138.4448 54.51776 140.84096a15.36 15.36 0 0 1-13.568 8.14592z" fill="#2E0C08" /><path d="M200.04864 814.57664c-12.672 0-26.21952-1.54112-40.61184-5.14048-99.46112-24.86272-154.41408-134.03648-130.66752-259.57888 24.02304-126.97088 103.9616-152.67328 107.35104-153.70752a15.36 15.36 0 1 1 9.04704 29.35808c-2.94912 0.95744-65.8944 22.66624-86.21056 130.05824-20.62848 109.04064 24.76544 203.27424 107.9296 224.07168 79.86176 19.97312 128.94208-39.31136 129.42848-39.9104a15.36512 15.36512 0 0 1 23.87968 19.33312c-2.1248 2.62144-45.94688 55.51104-120.14592 55.51616z" fill="#2E0C08" /><path d="M201.85088 677.69344a15.0528 15.0528 0 0 1-3.44576-0.39424c-19.46624-4.49024-53.68832-26.78784-43.89376-79.0528 5.17632-27.59168 24.10496-51.10272 51.93216-64.52224 32.256-15.54944 70.59968-14.73024 102.5536 2.19136a15.36512 15.36512 0 0 1-14.37184 27.15136c-23.36256-12.36992-51.33824-12.99968-74.83904-1.66912-18.93376 9.12896-31.7184 24.6272-35.07712 42.51136-6.49216 34.62656 16.1792 42.3168 20.7872 43.50464 8.1408 2.10432 13.17888 10.37824 11.18208 18.54464a15.3088 15.3088 0 0 1-14.82752 11.73504z" fill="#2E0C08" /></svg>