<?xml version="1.0" standalone="no"?><!DOCTYPE svg PUBLIC "-//W3C//DTD SVG 1.1//EN" "http://www.w3.org/Graphics/SVG/1.1/DTD/svg11.dtd"><svg class="icon" width="200px" height="200.00px" viewBox="0 0 1024 1024" version="1.1" xmlns="http://www.w3.org/2000/svg"><path fill="#333333" d="M753.536 663.552a337.066667 337.066667 0 0 0 0-478.805333c-133.333333-132.565333-349.738667-132.565333-483.072 0a337.066667 337.066667 0 0 0 0 478.805333L512 903.68l241.536-240.128zM210.304 724.096a422.4 422.4 0 0 1 0-599.893333C376.917333-41.386667 647.082667-41.386667 813.653333 124.245333a422.4 422.4 0 0 1 0 599.893334L512 1024l-301.696-299.946667zM512 512a85.333333 85.333333 0 1 0 0-170.666667 85.333333 85.333333 0 0 0 0 170.666667z m0 85.333333a170.666667 170.666667 0 1 1 0-341.333333 170.666667 170.666667 0 0 1 0 341.333333z"  /></svg>