<?xml version="1.0" standalone="no"?><!DOCTYPE svg PUBLIC "-//W3C//DTD SVG 1.1//EN" "http://www.w3.org/Graphics/SVG/1.1/DTD/svg11.dtd"><svg class="icon" width="200px" height="200.00px" viewBox="0 0 1024 1024" version="1.1" xmlns="http://www.w3.org/2000/svg"><path fill="#333333" d="M855.771429 705.828571c-29.257143-43.885714-67.657143-82.285714-113.371429-107.885714-9.142857-5.485714-20.114286-1.828571-25.6 7.314286-5.485714 9.142857-1.828571 20.114286 7.314286 25.6 40.228571 23.771429 76.8 56.685714 102.4 96.914286 3.657143 5.485714 9.142857 9.142857 14.628571 9.142857 3.657143 0 7.314286-1.828571 9.142857-3.657143 9.142857-7.314286 10.971429-18.285714 5.485715-27.428572zM669.257143 378.514286c0-124.342857-100.571429-224.914286-224.914286-224.914286C320 153.6 219.428571 254.171429 219.428571 378.514286c0 64 27.428571 124.342857 74.971429 166.4 7.314286 7.314286 18.285714 5.485714 25.6-1.828572 7.314286-7.314286 5.485714-18.285714-1.828571-25.6-40.228571-34.742857-62.171429-85.942857-62.171429-138.971428C256 274.285714 340.114286 190.171429 444.342857 190.171429S632.685714 274.285714 632.685714 378.514286C632.685714 482.742857 548.571429 566.857143 444.342857 566.857143c-106.057143 0-204.8 51.2-265.142857 138.971428-5.485714 9.142857-3.657143 20.114286 3.657143 25.6 3.657143 1.828571 7.314286 3.657143 10.971428 3.657143 5.485714 0 10.971429-1.828571 14.628572-7.314285 53.028571-76.8 140.8-122.514286 235.885714-122.514286 124.342857-3.657143 224.914286-104.228571 224.914286-226.742857zM607.085714 608.914286c-9.142857-5.485714-20.114286-1.828571-25.6 7.314285-5.485714 9.142857-1.828571 20.114286 7.314286 25.6 51.2 29.257143 91.428571 73.142857 115.2 126.171429 3.657143 7.314286 9.142857 10.971429 16.457143 10.971429 1.828571 0 5.485714 0 7.314286-1.828572 9.142857-3.657143 12.8-14.628571 9.142857-23.771428-27.428571-62.171429-73.142857-111.542857-129.828572-144.457143zM171.885714 749.714286c-9.142857-3.657143-20.114286 0-23.771428 9.142857-3.657143 9.142857 0 20.114286 9.142857 23.771428 9.142857 3.657143 20.114286 0 23.771428-9.142857 3.657143-9.142857 0-20.114286-9.142857-23.771428z"  /><path fill="#333333" d="M570.514286 415.085714c3.657143-9.142857-3.657143-20.114286-12.8-21.942857-9.142857-3.657143-20.114286 3.657143-21.942857 12.8-10.971429 40.228571-49.371429 67.657143-91.428572 67.657143s-78.628571-27.428571-91.428571-67.657143c-3.657143-9.142857-12.8-14.628571-21.942857-12.8-9.142857 3.657143-14.628571 12.8-12.8 21.942857 16.457143 54.857143 67.657143 95.085714 126.171428 95.085715 58.514286-1.828571 109.714286-40.228571 126.171429-95.085715zM678.4 204.8c58.514286 36.571429 93.257143 98.742857 93.257143 168.228571 0 69.485714-34.742857 131.657143-93.257143 168.228572-9.142857 5.485714-10.971429 16.457143-5.485714 25.6 3.657143 5.485714 9.142857 9.142857 14.628571 9.142857 3.657143 0 7.314286 0 9.142857-3.657143 69.485714-43.885714 109.714286-117.028571 109.714286-199.314286s-42.057143-155.428571-109.714286-199.314285c-9.142857-5.485714-20.114286-3.657143-25.6 5.485714-3.657143 9.142857-1.828571 20.114286 7.314286 25.6z"  /></svg>