<?xml version="1.0" standalone="no"?><!DOCTYPE svg PUBLIC "-//W3C//DTD SVG 1.1//EN" "http://www.w3.org/Graphics/SVG/1.1/DTD/svg11.dtd"><svg class="icon" width="200px" height="200.00px" viewBox="0 0 1024 1024" version="1.1" xmlns="http://www.w3.org/2000/svg"><path d="M0 0m512 0l0 0q512 0 512 512l0 0q0 512-512 512l0 0q-512 0-512-512l0 0q0-512 512-512Z" fill="#FF8B38" /><path d="M417.5872 287.7824c-79.1936 0-143.3984 64.2048-143.3984 143.3984 0 79.1936 64.2048 143.3984 143.3984 143.3984 79.1936 0 143.3984-64.2048 143.3984-143.3984 0-79.1936-64.2048-143.3984-143.3984-143.3984z m0 38.4a104.9984 104.9984 0 1 1 0 209.9968 104.9984 104.9984 0 0 1 0-209.9968z" fill="#FFFFFF" /><path d="M522.7776 561.8688l75.3536 119.7696c13.568 21.5424 8.0256 50.432-12.6976 64.96a44.9536 44.9536 0 0 1-22.7072 8.064l-3.072 0.1024H275.52c-25.5744 0-45.8752-21.4144-45.8752-47.3344 0-8.128 2.0224-16.1152 5.8752-23.1808l1.536-2.6112 75.3408-119.7696 32.512 20.4416-75.3536 119.7696a10.0608 10.0608 0 0 0-1.5104 5.3504c0 4.6848 2.9696 8.2432 6.4256 8.8448l1.0496 0.0896h284.16c1.28 0 2.5728-0.4096 3.7376-1.216 3.4688-2.432 4.736-7.6416 2.88-11.84l-0.64-1.2288-75.3664-119.7696 32.512-20.4416zM525.76 269.6448c102.6176-5.1584 164.9152 38.656 180.0448 129.1648 8.6912 64.2048-14.0672 114.0352-66.3808 146.7392l-3.8656 2.3552 153.984 174.976c10.5344 11.9808 2.688 30.5536-12.736 31.8208l-1.6768 0.064h-140.544v-38.4h98.0736L590.464 554.7904a19.2 19.2 0 0 1 5.0688-29.4656l1.5616-0.768c55.808-24.7424 78.3744-63.5264 70.7456-120-11.4304-68.3264-54.464-99.6608-135.68-96.768l-4.4672 0.2048-19.1744 0.96-1.92-38.3488 19.1616-0.96z" fill="#FFFFFF" /></svg>