<?xml version="1.0" standalone="no"?><!DOCTYPE svg PUBLIC "-//W3C//DTD SVG 1.1//EN" "http://www.w3.org/Graphics/SVG/1.1/DTD/svg11.dtd"><svg class="icon" width="200px" height="200.00px" viewBox="0 0 1024 1024" version="1.1" xmlns="http://www.w3.org/2000/svg"><path fill="#333333" d="M806.684044 643.757836c-15.020088-89.023546-47.52848-132.311445-67.534116-159.422919-5.040806-6.826476-16.544815-13.46364-30.931476-19.573801 35.610032-22.267143 33.374108-70.507844 16.084327-87.079264 0 0-11.597129 23.829731-32.201399 18.025539 0 0 29.30442-8.366551 19.645432-33.477462 0 0-12.242835 16.092513-27.366278 3.871167-15.139815-12.242835 68.423369-281.512558-161.949462-301.361629 0 0-178.349991-18.030655-188.654684 164.845419 0 0-5.480828 26.88737-29.138644 20.599154-23.667026-6.277984-12.07092-26.558889-12.07092-26.558889s-64.720024 41.531905-8.700149 88.86698c0 0-22.213931 8.523117-31.857569-11.425214 0 0-4.52199 70.836325 47.626717 70.190619 0 0-19.958564 14.165628-37.984103 6.434549 0 0 65.695235 110.75857 171.291225 34.123168 0 0-24.475438-44.428885-21.906939-89.502453 2.588965-45.069475 72.127737-79.202876 79.848583-139.735531 0 0 75.337849 0 105.61134 54.098105 0 0-10.298554-41.224914-39.281655-57.317427 0 0 57.93755 14.801101 62.782905 63.095014 10.242272 102.329597-36.712133 160.344918-41.542138 163.236781-4.830005 2.901073-4.830005 2.901073-4.830005 2.901073s-0.328481 11.256368 5.51562 24.588001c-5.907547 18.540262-25.468045 63.306838-77.56047 67.937299-65.871243 5.861498-82.969667-63.376423-82.969667-63.376423-14.597463 17.206894-42.104957 25.116027-105.476263 44.162826-63.371306 19.036565-64.438615 67.091024-71.716368 84.824921-14.415314 35.134195-58.901505 391.779941-58.901505 391.779941l656.17361 5.335519C838.692039 963.842899 821.68776 732.770126 806.684044 643.757836z" /></svg>