<?xml version="1.0" standalone="no"?><!DOCTYPE svg PUBLIC "-//W3C//DTD SVG 1.1//EN" "http://www.w3.org/Graphics/SVG/1.1/DTD/svg11.dtd"><svg class="icon" width="200px" height="200.00px" viewBox="0 0 1024 1024" version="1.1" xmlns="http://www.w3.org/2000/svg"><path d="M511.77 511.78m-447.56 0a447.56 447.56 0 1 0 895.12 0 447.56 447.56 0 1 0-895.12 0Z" fill="#FFF000" /><path d="M218.4 417.3c-9.58 29.78-14.78 61.52-14.78 94.49 0 67.96 22.02 130.77 59.29 181.72L422.38 417.3H218.4zM576.62 813.08c97.34-20.85 177.62-87.66 217.03-176.63h-319l101.97 176.63zM283.29 718.55c56.38 62.27 137.86 101.39 228.48 101.39 11.13 0 22.13-0.6 32.95-1.76L385.24 541.95l-101.95 176.6zM740.26 305.03c-56.38-62.27-137.86-101.39-228.49-101.39-11.13 0-22.13 0.61-32.96 1.76L638.3 481.62l101.96-176.59zM446.93 210.49c-97.34 20.85-177.62 87.67-217.03 176.63h319.01L446.93 210.49zM760.64 330.06L601.17 606.28h203.98c9.59-29.78 14.78-61.53 14.78-94.5-0.01-67.96-22.02-130.77-59.29-181.72z" fill="#231815" /></svg>