<?xml version="1.0" standalone="no"?><!DOCTYPE svg PUBLIC "-//W3C//DTD SVG 1.1//EN" "http://www.w3.org/Graphics/SVG/1.1/DTD/svg11.dtd"><svg class="icon" width="200px" height="200.00px" viewBox="0 0 1024 1024" version="1.1" xmlns="http://www.w3.org/2000/svg"><path fill="#333333" d="M427.1 445.8h-254l-103 127.8 103 63.9v288.3h319.4V511.2c0-36.1-29.3-65.4-65.4-65.4zM330.4 381.4c53 0 96-43 96-96V125.6H303.3c-38 0-68.9 30.8-68.9 68.9v90.9c0 53 43 96 96 96zM839.9 498.2H647c-50.6 0-91.7 41.1-91.7 91.7v335.9h284.5v-224l99.6-64.3-99.5-139.3zM699.7 440.8c47.2 0 85.5-38.3 85.5-85.5V212.9H675.6c-33.9 0-61.4 27.5-61.4 61.4v81c0 47.2 38.3 85.5 85.5 85.5z"  /></svg>