<?xml version="1.0" standalone="no"?><!DOCTYPE svg PUBLIC "-//W3C//DTD SVG 1.1//EN" "http://www.w3.org/Graphics/SVG/1.1/DTD/svg11.dtd"><svg class="icon" width="200px" height="200.00px" viewBox="0 0 1024 1024" version="1.1" xmlns="http://www.w3.org/2000/svg"><path fill="#333333" d="M150.588235 0h722.82353c83.169882 0 150.588235 67.418353 150.588235 150.588235v722.82353c0 83.169882-67.418353 150.588235-150.588235 150.588235H150.588235C67.418353 1024 0 956.581647 0 873.411765V150.588235C0 67.418353 67.418353 0 150.588235 0z m210.56753 361.321412c0 83.034353 67.312941 150.347294 150.332235 150.347294 83.034353 0 150.347294-67.312941 150.347294-150.347294 0-83.019294-67.312941-150.332235-150.347294-150.332236-83.019294 0-150.332235 67.312941-150.332235 150.332236z m198.053647 154.096941l-47.721412 47.736471-47.706353-47.736471C320.421647 538.307765 210.823529 662.543059 210.823529 812.333176h601.344c0-149.790118-109.598118-274.025412-252.958117-296.914823z m-47.721412 253.967059l-51.471059-51.486118 51.471059-154.563765 51.501176 154.639059-51.501176 51.410824z"  /></svg>