<?xml version="1.0" standalone="no"?><!DOCTYPE svg PUBLIC "-//W3C//DTD SVG 1.1//EN" "http://www.w3.org/Graphics/SVG/1.1/DTD/svg11.dtd"><svg class="icon" width="200px" height="200.00px" viewBox="0 0 1024 1024" version="1.1" xmlns="http://www.w3.org/2000/svg"><path fill="#333333" d="M381.337363 645.939257L257.245361 762.49974c-17.982524 17.796283-45.914634 2.621705-43.188552-20.369892l14.080666-118.366615C-112.972779 534.285518-40.995611 98.118495 324.426302 98.118495c126.709613 0 238.774721 52.14758 290.168126 159.855459-138.082616 25.649119-248.001855 122.037207-255.797386 264.892513-2.281968 41.806068 5.417372 84.816565 22.540321 123.07279z"  /><path fill="#333333" d="M752.746628 835.024375l-8.576312-72.038565 0.061398-0.008187c-1.52984-12.839397 7.0301-24.929736 19.927826-27.557581 303.319631-62.202566 251.253915-407.242307-63.611657-407.242307-347.192773-0.002047-335.644786 388.108566-62.030651 407.813311a24.979878 24.979878 0 0 1 16.016757 6.799856l98.212639 92.233473z m44.087013-55.660582l14.074525 118.352288c2.731199 22.993644-25.205005 38.165152-43.180365 20.368869L626.212 785.165927c-112.618715-13.21802-186.774497-75.045033-220.162865-151.293472-71.694736-163.768573 46.181716-356.094496 294.498748-356.094496 366.69081-0.005117 434.03855 413.614422 96.285758 501.585834z m23.061183-257.207499c43.457681 0 43.457681 66.012328 0 66.012327-43.462797-0.005117-43.462797-66.009258 0-66.009257v-0.00307z m-118.730911 0c43.458704 0 43.458704 66.012328 0 66.012327-43.447448-0.005117-43.450518-66.009258 0-66.009257v-0.00307z m-118.723748 0c43.460751 0 43.460751 66.012328 0 66.012327-43.455634-0.005117-43.457681-66.009258 0-66.009257v-0.00307z"  /></svg>